<svg width="180" height="80" viewBox="0 0 180 80" fill="none" xmlns="http://www.w3.org/2000/svg">
<rect x="54" width="126" height="80" rx="18" fill="#0051FF"/>
<path d="M83.8 29.072C81.112 29.072 79.032 30.176 77.56 32.384C76.12 34.592 75.4 37.568 75.4 41.312C75.4 45.664 76.184 49.008 77.752 51.344C79.32 53.68 81.4 54.848 83.992 54.848C85.56 54.848 86.984 54.32 88.264 53.264C89.576 52.176 90.472 50.976 90.952 49.664L92.92 50.24C92.184 52 91.016 53.488 89.416 54.704C87.848 55.888 85.72 56.48 83.032 56.48C78.744 56.48 75.288 55.088 72.664 52.304C70.04 49.52 68.728 46.208 68.728 42.368C68.728 37.92 70.232 34.32 73.24 31.568C76.248 28.816 79.752 27.44 83.752 27.44C84.68 27.44 85.832 27.68 87.208 28.16C88.584 28.64 89.368 28.88 89.56 28.88C89.944 28.88 90.136 28.56 90.136 27.92H91.24L91.624 34.688H90.568C90.376 33.376 89.544 32.112 88.072 30.896C86.6 29.68 85.176 29.072 83.8 29.072ZM100.193 38.432C100.929 38.432 101.297 39.088 101.297 40.4C101.297 40.944 101.025 41.36 100.481 41.648C99.9371 41.936 99.3611 42.08 98.7531 42.08C98.1131 42.08 97.5371 41.856 97.0251 41.408C96.5451 40.96 96.3051 40.384 96.3051 39.68C96.3051 38.048 97.1051 36.768 98.7051 35.84C100.337 34.88 102.449 34.4 105.041 34.4C108.081 34.4 110.449 35.168 112.145 36.704C113.841 38.208 114.689 40.128 114.689 42.464V51.968C114.689 52.992 114.849 53.744 115.169 54.224C115.521 54.704 115.937 54.944 116.417 54.944C116.833 54.944 117.201 54.832 117.521 54.608C117.873 54.384 118.049 54.112 118.049 53.792H118.913C118.913 55.52 117.153 56.384 113.633 56.384C112.001 56.384 110.737 55.808 109.841 54.656C107.921 55.872 105.697 56.48 103.169 56.48C97.8251 56.48 95.1531 54.528 95.1531 50.624C95.1531 49.824 95.4251 49.104 95.9691 48.464C96.5451 47.824 97.4091 47.28 98.5611 46.832C99.7131 46.384 100.737 46.032 101.633 45.776C102.561 45.52 103.825 45.232 105.425 44.912C107.025 44.56 108.113 44.304 108.689 44.144C108.689 41.136 108.433 39.056 107.921 37.904C107.441 36.72 106.321 36.128 104.561 36.128C103.505 36.128 102.545 36.352 101.681 36.8C100.849 37.216 100.353 37.76 100.193 38.432ZM109.169 53.504C108.849 52.64 108.689 51.68 108.689 50.624V45.2C105.969 46.032 104.177 46.72 103.313 47.264C101.969 48.16 101.297 49.312 101.297 50.72C101.297 52.192 101.601 53.248 102.209 53.888C102.849 54.528 103.569 54.848 104.369 54.848C105.777 54.848 107.377 54.4 109.169 53.504ZM119.246 56V54.992C120.974 54.992 121.982 54.672 122.27 54.032V37.76C120.542 37.632 119.534 37.568 119.246 37.568V36.464C119.854 36.464 121.326 36.128 123.662 35.456C125.998 34.752 127.534 34.4 128.27 34.4V36.416C129.934 35.072 131.518 34.4 133.022 34.4C136.99 34.4 138.974 35.36 138.974 37.28C138.974 38.048 138.734 38.656 138.254 39.104C137.806 39.552 137.246 39.776 136.574 39.776C135.838 39.776 135.278 39.584 134.894 39.2C134.51 38.816 134.27 38.384 134.174 37.904C134.078 37.424 133.886 36.992 133.598 36.608C133.342 36.224 132.958 36.032 132.446 36.032C131.23 36.032 129.838 36.704 128.27 38.048V54.032C128.558 54.672 129.566 54.992 131.294 54.992V56H119.246ZM156.813 35.36V29.12C155.085 28.992 154.077 28.928 153.789 28.928V27.824C154.397 27.824 155.869 27.488 158.205 26.816C160.541 26.112 162.077 25.76 162.812 25.76V53.12C164.541 53.248 165.549 53.312 165.837 53.312V54.416C165.229 54.416 163.757 54.768 161.421 55.472C159.085 56.144 157.549 56.48 156.813 56.48V54.896C155.277 55.952 153.357 56.48 151.053 56.48C150.221 56.48 149.357 56.368 148.461 56.144C147.597 55.952 146.653 55.6 145.629 55.088C144.637 54.544 143.757 53.872 142.989 53.072C142.221 52.24 141.581 51.168 141.069 49.856C140.557 48.512 140.301 47.008 140.301 45.344C140.301 41.824 141.437 39.088 143.709 37.136C145.981 35.184 148.781 34.208 152.109 34.208C153.933 34.208 155.501 34.592 156.813 35.36ZM156.813 36.896C155.597 36.192 154.125 35.84 152.397 35.84C150.989 35.84 149.661 36.704 148.413 38.432C147.165 40.16 146.541 42.464 146.541 45.344C146.541 48 147.069 50.256 148.125 52.112C149.181 53.936 150.317 54.848 151.533 54.848C153.741 54.848 155.501 54.336 156.813 53.312V36.896Z" fill="white"/>
<path d="M46 72.9659H11.0909V58.9886C11.0909 56.4205 11.4716 54.2784 12.233 52.5625C12.9943 50.8466 14.0511 49.5568 15.4034 48.6932C16.7443 47.8295 18.2898 47.3977 20.0398 47.3977C21.4034 47.3977 22.6023 47.6705 23.6364 48.2159C24.6591 48.7614 25.5 49.5114 26.1591 50.4659C26.8068 51.4091 27.267 52.4886 27.5398 53.7045H27.8807C27.9375 52.375 28.3125 51.1307 29.0057 49.9716C29.6989 48.8011 30.6705 47.8523 31.9205 47.125C33.1591 46.3977 34.6364 46.0341 36.3523 46.0341C38.2045 46.0341 39.858 46.4943 41.3125 47.4148C42.7557 48.3239 43.8977 49.6705 44.7386 51.4545C45.5795 53.2386 46 55.4375 46 58.0511V72.9659ZM39.9659 65.5852V59.5682C39.9659 57.5114 39.5739 56.0114 38.7898 55.0682C37.9943 54.125 36.9375 53.6534 35.6193 53.6534C34.6534 53.6534 33.8011 53.8864 33.0625 54.3523C32.3239 54.8182 31.7443 55.483 31.3239 56.3466C30.9034 57.1989 30.6932 58.2159 30.6932 59.3977V65.5852H39.9659ZM25.6989 65.5852V60.1136C25.6989 59.1023 25.5227 58.2045 25.1705 57.4205C24.8068 56.625 24.2955 56 23.6364 55.5455C22.9773 55.0795 22.1875 54.8466 21.267 54.8466C20.0057 54.8466 18.9886 55.2955 18.2159 56.1932C17.4432 57.0795 17.0568 58.3409 17.0568 59.9773V65.5852H25.6989ZM46 41.3679H19.8182V34.1065H46V41.3679ZM16.4432 37.7202C16.4432 38.7997 16.0852 39.7259 15.3693 40.4986C14.642 41.2599 13.7727 41.6406 12.7614 41.6406C11.7614 41.6406 10.9034 41.2599 10.1875 40.4986C9.46023 39.7259 9.09659 38.7997 9.09659 37.7202C9.09659 36.6406 9.46023 35.7202 10.1875 34.9588C10.9034 34.1861 11.7614 33.7997 12.7614 33.7997C13.7727 33.7997 14.642 34.1861 15.3693 34.9588C16.0852 35.7202 16.4432 36.6406 16.4432 37.7202ZM46 28.4261H41.6705L25.8011 15.608H25.6136V27.983H19.8182V6.86364H24.5398L40.017 18.8977H40.2045V6.42045H46V28.4261Z" fill="black"/>
</svg>
